<?xml version="1.0" standalone="no"?>
<!DOCTYPE svg PUBLIC "-//W3C//DTD SVG 20010904//EN"
 "http://www.w3.org/TR/2001/REC-SVG-20010904/DTD/svg10.dtd">
<svg version="1.0" xmlns="http://www.w3.org/2000/svg"
 width="512.000000pt" height="512.000000pt" viewBox="0 0 512.000000 512.000000"
 preserveAspectRatio="xMidYMid meet">

<g transform="translate(0.000000,512.000000) scale(0.100000,-0.100000)"
fill="#000000" stroke="none">
<path d="M1960 5024 c-757 -115 -1393 -651 -1630 -1374 -70 -213 -100 -401
-100 -632 0 -516 174 -967 524 -1361 l76 -85 0 -724 0 -725 23 -21 c33 -31 87
-29 118 4 l24 26 0 756 0 757 -104 115 c-247 275 -400 583 -467 941 -25 132
-30 420 -10 562 111 791 689 1406 1481 1577 128 28 446 39 592 20 750 -94
1376 -646 1567 -1383 54 -207 71 -505 42 -712 -7 -49 -11 -97 -8 -105 3 -8
133 -265 289 -571 155 -305 283 -558 283 -562 0 -3 -112 -7 -250 -9 -244 -3
-250 -3 -272 -26 l-23 -23 -5 -487 -5 -487 -30 -58 c-36 -73 -108 -139 -183
-169 l-57 -23 -645 0 c-610 0 -648 1 -695 19 -68 26 -127 69 -164 122 -61 84
-64 101 -70 432 l-6 304 -24 19 c-32 26 -74 24 -108 -5 l-28 -24 0 -304 c0
-265 2 -311 18 -363 26 -85 71 -159 134 -220 63 -63 115 -95 203 -127 l65 -23
665 0 c730 0 708 -2 835 62 73 38 175 145 212 223 50 106 53 138 53 580 l0
410 284 0 285 0 20 26 c12 15 21 39 21 55 0 17 -122 267 -316 644 l-315 617
10 86 c14 111 14 363 1 472 -45 363 -180 698 -397 988 -79 104 -249 279 -352
361 -287 228 -618 371 -986 426 -128 19 -445 18 -575 -1z"/>
<path d="M2055 4570 c-141 -18 -193 -31 -216 -56 -21 -23 -24 -39 -35 -235 -7
-116 -14 -212 -16 -213 -2 -2 -28 -14 -58 -29 -30 -14 -82 -44 -114 -66 l-60
-39 -189 94 c-104 52 -198 94 -210 94 -30 0 -133 -111 -207 -223 -72 -107
-137 -238 -177 -355 -26 -76 -27 -84 -13 -110 9 -16 82 -71 185 -139 l170
-112 0 -139 0 -140 -172 -113 c-209 -138 -209 -137 -169 -253 58 -169 180
-378 296 -508 71 -80 77 -79 302 33 l183 91 55 -37 c30 -20 82 -51 115 -67 33
-17 61 -32 63 -33 2 -1 9 -98 16 -214 11 -191 14 -214 33 -232 45 -45 322 -77
515 -60 163 15 237 33 264 64 18 21 22 43 28 138 3 63 9 157 13 210 l6 96 56
27 c31 15 84 45 118 67 l61 40 181 -90 c225 -113 229 -114 306 -28 111 121
213 292 281 469 35 91 41 127 24 157 -5 10 -87 69 -182 131 l-173 112 1 139 1
139 169 111 c93 61 174 119 181 128 19 25 15 63 -13 143 -57 157 -157 330
-267 463 -60 71 -88 94 -119 95 -9 0 -101 -42 -204 -94 l-187 -93 -66 42 c-36
23 -90 54 -118 69 -37 18 -53 32 -53 46 0 81 -23 380 -31 400 -5 14 -18 31
-29 38 -56 35 -393 61 -545 42z m325 -171 c46 -5 86 -12 88 -14 3 -2 10 -93
17 -202 7 -109 16 -206 20 -216 4 -10 53 -40 109 -66 55 -27 132 -72 171 -100
52 -38 78 -51 104 -51 24 0 88 28 207 89 l172 89 29 -36 c82 -103 213 -339
213 -382 -1 -8 -71 -61 -159 -117 -86 -57 -166 -112 -176 -123 -13 -15 -17
-32 -14 -72 4 -69 4 -238 0 -310 -2 -34 1 -64 8 -71 6 -8 85 -63 176 -123 190
-125 179 -103 114 -243 -36 -78 -122 -215 -169 -270 l-21 -25 -188 93 c-145
72 -194 92 -211 86 -13 -4 -51 -28 -84 -53 -34 -25 -107 -67 -163 -94 -55 -27
-107 -55 -114 -64 -8 -9 -16 -87 -24 -220 -7 -113 -15 -207 -17 -209 -2 -2
-56 -9 -121 -16 -88 -8 -146 -8 -239 1 -68 6 -124 13 -125 14 -2 1 -8 92 -14
202 -7 134 -16 206 -25 221 -7 12 -60 44 -116 72 -57 27 -130 70 -163 94 -33
25 -72 48 -86 52 -19 5 -67 -15 -208 -85 -213 -105 -188 -108 -277 26 -50 75
-154 277 -154 299 0 6 74 58 164 116 90 59 171 118 180 131 15 22 15 37 5 122
-8 71 -8 120 0 191 9 76 9 101 -2 120 -7 14 -88 74 -180 135 -192 125 -180
102 -117 235 40 84 98 177 158 257 l35 47 178 -90 c104 -52 191 -89 208 -89
20 0 55 18 106 55 43 30 107 69 144 85 108 50 115 55 127 80 7 14 17 112 23
219 6 107 13 196 14 198 2 1 35 7 73 12 99 12 226 13 324 0z"/>
<path d="M2060 3709 c-313 -80 -520 -348 -520 -668 0 -195 62 -343 200 -482
72 -73 100 -94 180 -132 160 -78 321 -95 484 -52 268 71 466 300 506 584 13
96 1 137 -46 157 -37 16 -69 8 -95 -22 -10 -12 -21 -54 -27 -109 -39 -309
-334 -520 -631 -450 -188 45 -348 203 -390 385 -15 66 -13 187 4 255 56 212
272 385 481 385 64 0 103 33 104 88 0 22 -8 41 -25 57 -21 21 -33 25 -87 24
-35 0 -97 -9 -138 -20z"/>
</g>
</svg>
