<?xml version="1.0" standalone="no"?>
<!DOCTYPE svg PUBLIC "-//W3C//DTD SVG 20010904//EN"
 "http://www.w3.org/TR/2001/REC-SVG-20010904/DTD/svg10.dtd">
<svg version="1.0" xmlns="http://www.w3.org/2000/svg"
 width="512.000000pt" height="512.000000pt" viewBox="0 0 512.000000 512.000000"
 preserveAspectRatio="xMidYMid meet">

<g transform="translate(0.000000,512.000000) scale(0.100000,-0.100000)"
fill="#000000" stroke="none">
<path d="M2635 4946 c-60 -19 -96 -40 -139 -82 -35 -34 -86 -123 -86 -151 0
-6 -196 -77 -440 -158 l-439 -146 -33 24 c-48 35 -103 50 -163 44 -62 -6 -101
-25 -144 -68 -45 -45 -63 -85 -68 -154 -4 -52 -1 -68 24 -116 l29 -56 -244
-274 c-133 -151 -255 -286 -270 -301 l-27 -27 -60 21 c-148 50 -313 -21 -385
-167 -20 -41 -25 -65 -24 -135 0 -73 4 -93 27 -138 26 -50 99 -132 118 -132 5
0 9 -157 9 -354 l0 -354 -30 -12 c-68 -28 -130 -129 -130 -210 0 -124 116
-240 240 -240 46 0 103 19 136 45 l28 23 202 -101 c185 -92 202 -103 213 -134
18 -49 67 -101 121 -128 l46 -23 182 -437 182 -437 -24 -31 c-71 -97 -60 -213
29 -302 101 -102 229 -102 330 0 56 55 75 102 75 181 0 39 38 146 188 537
l187 488 59 24 c82 33 124 70 165 146 34 60 36 70 36 149 -1 72 -5 93 -28 137
-32 62 -83 115 -137 143 l-39 20 53 127 c29 71 142 346 252 611 l199 484 45
24 c25 13 52 29 62 36 13 9 149 -18 686 -137 l670 -149 5 -51 c11 -106 83
-206 182 -255 72 -35 199 -36 270 -1 63 32 124 92 155 156 20 41 25 65 25 135
-1 77 -4 91 -34 148 -39 72 -88 115 -169 148 l-57 23 -143 357 c-143 355 -143
357 -124 378 82 89 76 232 -13 321 -90 90 -232 95 -323 12 l-23 -21 -518 148
-519 149 -11 36 c-46 156 -232 256 -386 207z m148 -160 c104 -43 128 -175 47
-256 -66 -66 -156 -67 -221 -1 -124 123 13 325 174 257z m672 -370 c602 -172
545 -153 545 -181 0 -23 -45 -47 -517 -283 l-518 -259 -31 21 c-18 12 -39 26
-47 31 -12 8 -22 73 -46 290 -17 154 -31 285 -31 290 0 6 17 17 37 24 49 18
135 101 158 151 10 23 23 39 29 37 6 -2 196 -57 421 -121z m-1016 76 c29 -57
95 -118 156 -143 30 -12 55 -27 55 -33 0 -6 14 -137 31 -291 30 -271 31 -280
13 -290 -11 -5 -39 -30 -64 -55 -47 -47 -70 -100 -70 -161 l0 -34 -436 -254
-435 -254 -47 26 -47 26 -37 518 c-36 502 -36 518 -19 538 29 32 53 84 60 133
l6 45 395 133 c217 73 401 133 407 133 7 1 21 -16 32 -37z m-1024 -197 c50
-49 15 -135 -55 -135 -41 0 -80 39 -80 80 0 41 39 80 80 80 19 0 40 -9 55 -25z
m2880 0 c16 -15 25 -36 25 -55 0 -19 -9 -40 -25 -55 -15 -16 -36 -25 -55 -25
-19 0 -40 9 -55 25 -16 15 -25 36 -25 55 0 19 9 40 25 55 15 16 36 25 55 25
19 0 40 -9 55 -25z m-126 -284 c19 -6 48 -11 66 -11 l31 0 119 -297 c65 -164
125 -313 132 -330 13 -32 13 -33 -28 -53 -22 -12 -60 -41 -83 -65 l-42 -45
-662 147 c-640 142 -662 148 -662 170 0 20 61 53 517 282 l518 258 30 -22 c16
-12 45 -27 64 -34z m-2771 -468 c18 -252 32 -471 32 -488 -1 -23 -10 -36 -38
-56 l-37 -26 -280 140 -280 139 -16 47 c-9 25 -18 51 -20 58 -2 6 122 154 276
327 228 257 285 316 306 316 l25 0 32 -457z m1457 32 c16 -15 25 -36 25 -55 0
-19 -9 -40 -25 -55 -15 -16 -36 -25 -55 -25 -19 0 -40 9 -55 25 -16 15 -25 36
-25 55 0 19 9 40 25 55 15 16 36 25 55 25 19 0 40 -9 55 -25z m-2312 -229
c104 -43 128 -175 47 -256 -66 -66 -156 -67 -221 -1 -124 123 13 325 174 257z
m2125 -24 l23 -18 -253 -613 c-267 -647 -253 -619 -323 -637 -22 -5 -39 17
-220 289 l-197 295 27 40 c18 28 28 59 32 99 l5 59 432 252 c237 138 436 252
441 252 6 0 20 -8 33 -18z m2035 -136 c103 -43 128 -177 48 -257 -112 -113
-296 -12 -267 146 18 94 128 150 219 111z m-3673 -231 c247 -123 250 -125 250
-156 0 -62 23 -113 75 -164 52 -53 102 -75 167 -75 34 0 36 -3 243 -312 l207
-311 -21 -45 c-12 -24 -24 -64 -28 -88 l-6 -44 -247 0 -248 0 -12 30 c-17 42
-90 104 -138 118 -90 27 -188 -1 -251 -73 l-33 -39 -174 87 c-170 85 -174 88
-174 118 0 80 -63 181 -130 209 l-30 12 0 328 0 328 47 7 c93 14 203 91 233
165 7 16 14 30 16 30 2 0 117 -56 254 -125z m545 -100 c50 -49 15 -135 -55
-135 -41 0 -80 39 -80 80 0 41 39 80 80 80 19 0 40 -9 55 -25z m-1120 -800
c50 -49 15 -135 -55 -135 -41 0 -80 39 -80 80 0 41 39 80 80 80 19 0 40 -9 55
-25z m1848 -149 c103 -43 128 -177 48 -257 -65 -65 -157 -65 -222 0 -124 123
13 325 174 257z m-1048 -171 c16 -15 25 -36 25 -55 0 -19 -9 -40 -25 -55 -15
-16 -36 -25 -55 -25 -19 0 -40 9 -55 25 -16 15 -25 36 -25 55 0 19 9 40 25 55
15 16 36 25 55 25 19 0 40 -9 55 -25z m715 -143 c0 -16 85 -94 123 -114 29
-14 37 -23 32 -36 -4 -9 -77 -199 -162 -422 -86 -223 -157 -407 -159 -409 -2
-2 -21 4 -44 13 -22 9 -55 16 -74 16 l-33 0 -171 411 -172 412 44 38 c24 21
49 52 56 69 l12 30 274 0 c151 0 274 -4 274 -8z m-235 -1137 c50 -49 15 -135
-55 -135 -41 0 -80 39 -80 80 0 41 39 80 80 80 19 0 40 -9 55 -25z"/>
<path d="M3385 3015 c-23 -22 -25 -32 -25 -109 l0 -85 -55 -26 c-30 -15 -82
-44 -115 -66 l-59 -40 -79 42 c-117 64 -112 68 -272 -209 -81 -141 -130 -237
-130 -254 0 -35 22 -57 97 -99 l58 -32 0 -136 0 -137 -72 -42 c-75 -44 -92
-67 -79 -114 3 -13 63 -122 133 -243 154 -265 149 -261 267 -196 l75 41 70
-45 c38 -25 90 -54 115 -65 l46 -19 0 -86 c0 -78 2 -88 25 -110 l24 -25 271 0
271 0 24 25 c23 22 25 32 25 109 l0 85 46 20 c25 12 77 41 115 66 l68 46 79
-42 c117 -64 112 -68 272 209 81 141 130 237 130 254 0 35 -22 57 -97 99 l-58
32 0 137 0 137 58 32 c75 42 97 64 97 99 0 17 -49 113 -130 254 -160 277 -155
273 -272 209 l-79 -42 -68 46 c-38 25 -90 54 -115 66 l-46 20 0 85 c0 77 -2
87 -25 109 l-24 25 -271 0 -271 0 -24 -25z m455 -204 c0 -86 17 -110 98 -139
62 -23 165 -85 220 -133 42 -37 74 -37 137 1 28 16 55 30 61 30 9 0 96 -143
161 -262 2 -4 -21 -22 -52 -39 -81 -46 -90 -64 -76 -149 14 -87 14 -153 0
-240 -14 -85 -5 -103 76 -149 31 -17 54 -35 52 -39 -65 -119 -152 -262 -161
-262 -6 0 -33 14 -61 30 -63 38 -95 38 -137 1 -55 -48 -158 -110 -220 -133
-81 -29 -98 -53 -98 -139 l0 -69 -160 0 -160 0 0 69 c0 88 -16 108 -120 150
-41 17 -111 58 -155 91 -49 36 -90 60 -105 60 -14 0 -47 -14 -75 -30 -27 -16
-55 -30 -61 -30 -9 0 -96 143 -161 262 -2 4 21 22 52 39 81 46 90 64 76 149
-6 38 -11 92 -11 120 0 28 5 82 11 120 14 85 5 103 -76 149 -31 17 -54 35 -52
39 65 119 152 262 161 262 6 0 34 -14 61 -30 28 -16 61 -30 75 -30 15 0 56 24
105 60 44 33 114 74 155 91 104 42 120 62 120 150 l0 69 160 0 160 0 0 -69z"/>
<path d="M3586 2389 c-63 -15 -153 -69 -197 -116 -22 -24 -55 -74 -72 -111
-29 -61 -32 -76 -32 -163 0 -90 2 -99 37 -171 45 -91 103 -147 196 -191 61
-29 76 -32 162 -32 86 0 101 3 162 32 93 44 151 100 196 191 35 72 37 81 37
171 -1 78 -5 106 -24 149 l-23 52 -57 -32 c-84 -47 -82 -44 -65 -90 30 -87 8
-180 -59 -246 -99 -97 -233 -96 -332 3 -101 101 -101 229 0 331 56 56 115 79
185 72 40 -4 41 -3 51 37 6 22 14 55 19 74 5 19 7 37 5 39 -10 10 -152 11
-189 1z"/>
</g>
</svg>
