<?xml version="1.0" standalone="no"?>
<!DOCTYPE svg PUBLIC "-//W3C//DTD SVG 20010904//EN"
 "http://www.w3.org/TR/2001/REC-SVG-20010904/DTD/svg10.dtd">
<svg version="1.0" xmlns="http://www.w3.org/2000/svg"
 width="512.000000pt" height="512.000000pt" viewBox="0 0 512.000000 512.000000"
 preserveAspectRatio="xMidYMid meet">

<g transform="translate(0.000000,512.000000) scale(0.100000,-0.100000)"
fill="#000000" stroke="none">
<path d="M454 5100 c-114 -30 -190 -74 -275 -159 -87 -86 -130 -162 -160 -279
-18 -71 -19 -118 -19 -907 0 -790 1 -836 19 -907 116 -454 668 -611 996 -283
69 69 127 161 156 250 10 31 15 186 19 660 l5 620 170 0 169 0 7 -34 c9 -42
36 -79 79 -108 l33 -23 1733 0 1734 0 0 85 0 85 -1495 0 -1496 0 3 83 3 82
1493 3 1492 2 0 85 0 85 -1733 -2 -1733 -3 -37 -25 c-39 -27 -77 -85 -77 -119
0 -21 -4 -21 -175 -21 l-175 0 0 171 c0 124 -4 188 -16 233 -80 312 -411 507
-720 426z m216 -160 c157 -30 279 -135 330 -284 18 -53 20 -84 20 -308 l0
-248 -425 0 -425 0 0 224 c0 123 5 247 10 276 37 195 209 342 406 349 17 1 55
-4 84 -9z m1290 -755 l0 -85 -125 0 -125 0 0 85 0 85 125 0 125 0 0 -85z
m-940 -763 c0 -484 -1 -512 -20 -568 -52 -151 -175 -257 -332 -285 -223 -41
-445 114 -488 341 -11 58 -14 1002 -3 1013 3 4 195 7 425 7 l418 0 0 -508z"/>
<path d="M340 3665 l0 -85 85 0 85 0 0 85 0 85 -85 0 -85 0 0 -85z"/>
<path d="M682 3668 l3 -83 83 -3 82 -3 0 86 0 85 -85 0 -86 0 3 -82z"/>
<path d="M340 3325 l0 -85 85 0 85 0 0 85 0 85 -85 0 -85 0 0 -85z"/>
<path d="M680 3325 l0 -85 85 0 85 0 0 85 0 85 -85 0 -85 0 0 -85z"/>
<path d="M340 2985 l0 -85 85 0 85 0 0 85 0 85 -85 0 -85 0 0 -85z"/>
<path d="M680 2985 l0 -85 85 0 85 0 0 85 0 85 -85 0 -85 0 0 -85z"/>
<path d="M2670 3736 c-315 -56 -580 -194 -800 -416 -210 -213 -347 -481 -400
-785 -17 -100 -24 -326 -11 -366 16 -50 67 -98 118 -112 l43 -11 0 -351 c0
-397 4 -426 67 -496 53 -59 104 -81 194 -87 l77 -4 3 -202 c4 -188 6 -204 27
-246 32 -60 63 -92 120 -121 43 -22 58 -24 197 -24 148 0 151 0 204 30 58 32
102 83 123 143 10 28 13 147 13 512 0 461 -1 476 -21 520 -26 58 -76 108 -134
134 -39 18 -64 21 -190 21 -142 0 -146 -1 -199 -30 -54 -30 -84 -61 -117 -125
-16 -30 -19 -65 -22 -237 l-4 -203 -53 0 c-43 0 -60 5 -82 24 l-28 24 -3 361
-3 361 68 0 c113 1 189 41 239 126 21 36 29 68 40 168 25 225 86 360 228 502
253 254 641 297 946 106 212 -133 335 -346 358 -617 10 -115 28 -162 84 -216
48 -46 112 -69 195 -69 l63 0 0 -356 0 -356 -29 -29 c-26 -25 -37 -29 -85 -29
l-56 0 0 190 c0 166 -2 196 -20 244 -23 60 -77 117 -139 144 -48 22 -296 24
-355 3 -54 -19 -115 -77 -142 -136 l-24 -50 0 -474 c0 -346 3 -485 12 -515 8
-25 32 -61 63 -93 41 -42 61 -55 111 -69 l62 -17 4 -156 c3 -141 6 -161 28
-204 32 -63 85 -110 147 -131 45 -15 105 -16 529 -14 470 3 480 3 520 25 22
12 57 40 77 62 71 79 67 -40 67 1793 l0 1649 25 24 c23 24 28 25 170 25 l145
0 0 85 0 85 -157 0 c-137 0 -164 -3 -203 -21 -55 -25 -95 -62 -123 -114 l-22
-40 -5 -1677 -5 -1677 -23 -23 -23 -23 -448 -3 c-288 -2 -458 1 -475 8 -43 16
-56 62 -56 204 l0 124 51 11 c64 14 85 25 132 69 65 63 77 113 77 331 l0 189
78 4 c87 4 133 22 185 73 72 70 72 67 75 488 l3 377 22 0 c38 0 100 43 124 85
20 35 23 54 23 158 0 258 -65 511 -186 721 -211 368 -553 618 -974 711 -101
23 -417 29 -520 11z m500 -181 c589 -133 1010 -652 1010 -1244 l0 -91 -143 0
c-189 0 -189 0 -202 163 -9 118 -39 221 -100 342 -119 238 -315 401 -580 482
-83 25 -103 27 -255 27 -150 0 -173 -3 -253 -27 -155 -48 -287 -124 -395 -229
-168 -163 -259 -355 -284 -598 -16 -161 -15 -160 -206 -160 l-145 0 6 118 c12
205 46 349 121 507 179 379 521 641 936 720 102 19 387 13 490 -10z m-726
-1874 l26 -24 0 -461 c-1 -497 1 -485 -54 -506 -36 -13 -185 -13 -226 1 -59
21 -60 31 -60 502 0 290 4 434 11 457 17 48 55 61 176 58 92 -3 104 -5 127
-27z m1171 14 c21 -8 39 -25 45 -41 7 -17 10 -187 8 -475 l-3 -448 -23 -23
c-21 -21 -31 -23 -143 -23 -120 0 -121 0 -145 28 l-24 28 0 453 c0 555 -14
512 168 515 52 1 95 -4 117 -14z"/>
</g>
</svg>
